<svg xmlns="http://www.w3.org/2000/svg" width="720" height="800" viewBox="0 0 360 400" role="img" aria-label="Ivory Persian Rug 3 x 5 ft">
  <defs>
    <filter id="shadow" x="-20%" y="-20%" width="140%" height="140%">
      <feDropShadow dx="0" dy="11" stdDeviation="10" flood-color="#1b140d" flood-opacity=".22"/>
    </filter>
    <linearGradient id="pile" x1="0" x2="1" y1="0" y2="1">
      <stop offset="0" stop-color="#d8c8a5"/>
      <stop offset=".55" stop-color="#7b6241"/>
      <stop offset="1" stop-color="#d8c8a5"/>
    </linearGradient>
    <pattern id="threads" width="8" height="8" patternUnits="userSpaceOnUse">
      <path d="M0 3 H8 M2 0 V8" stroke="#ffffff" stroke-opacity=".08" stroke-width="1"/>
      <path d="M0 7 H8" stroke="#000000" stroke-opacity=".09" stroke-width="1"/>
    </pattern>
  </defs>
  <rect width="360" height="400" fill="#f4f1ec"/>
  <ellipse cx="180" cy="365" rx="105.60000000000001" ry="18" fill="#000" opacity=".1"/>
  <g filter="url(#shadow)">
    <path d="M94 24 v16 M94 360 v16" stroke="#d9c8a4" stroke-width="2" opacity=".8"/><path d="M109.63636363636364 24 v16 M109.63636363636364 360 v16" stroke="#d9c8a4" stroke-width="2" opacity=".8"/><path d="M125.27272727272728 24 v16 M125.27272727272728 360 v16" stroke="#d9c8a4" stroke-width="2" opacity=".8"/><path d="M140.9090909090909 24 v16 M140.9090909090909 360 v16" stroke="#d9c8a4" stroke-width="2" opacity=".8"/><path d="M156.54545454545456 24 v16 M156.54545454545456 360 v16" stroke="#d9c8a4" stroke-width="2" opacity=".8"/><path d="M172.1818181818182 24 v16 M172.1818181818182 360 v16" stroke="#d9c8a4" stroke-width="2" opacity=".8"/><path d="M187.8181818181818 24 v16 M187.8181818181818 360 v16" stroke="#d9c8a4" stroke-width="2" opacity=".8"/><path d="M203.45454545454544 24 v16 M203.45454545454544 360 v16" stroke="#d9c8a4" stroke-width="2" opacity=".8"/><path d="M219.0909090909091 24 v16 M219.0909090909091 360 v16" stroke="#d9c8a4" stroke-width="2" opacity=".8"/><path d="M234.72727272727272 24 v16 M234.72727272727272 360 v16" stroke="#d9c8a4" stroke-width="2" opacity=".8"/><path d="M250.36363636363637 24 v16 M250.36363636363637 360 v16" stroke="#d9c8a4" stroke-width="2" opacity=".8"/><path d="M266 24 v16 M266 360 v16" stroke="#d9c8a4" stroke-width="2" opacity=".8"/>
    <rect x="84" y="40" width="192" height="320" rx="8" fill="url(#pile)"/>
    <rect x="84" y="40" width="192" height="320" rx="8" fill="url(#threads)"/>
    <rect x="92" y="48" width="176" height="304" rx="6" fill="none" stroke="#9a2430" stroke-width="5"/>
    <rect x="102" y="58" width="156" height="284" rx="4" fill="none" stroke="#fff8e8" stroke-width="2" opacity=".8"/>
    <path d="M98 52 l8 8 l-8 8 l-8 -8Z" fill="#9a2430" opacity=".82"/><path d="M98 348 l8 -8 l-8 -8 l-8 8Z" fill="#9a2430" opacity=".82"/><path d="M122 52 l8 8 l-8 8 l-8 -8Z" fill="#9a2430" opacity=".82"/><path d="M122 348 l8 -8 l-8 -8 l-8 8Z" fill="#9a2430" opacity=".82"/><path d="M146 52 l8 8 l-8 8 l-8 -8Z" fill="#9a2430" opacity=".82"/><path d="M146 348 l8 -8 l-8 -8 l-8 8Z" fill="#9a2430" opacity=".82"/><path d="M170 52 l8 8 l-8 8 l-8 -8Z" fill="#9a2430" opacity=".82"/><path d="M170 348 l8 -8 l-8 -8 l-8 8Z" fill="#9a2430" opacity=".82"/><path d="M194 52 l8 8 l-8 8 l-8 -8Z" fill="#9a2430" opacity=".82"/><path d="M194 348 l8 -8 l-8 -8 l-8 8Z" fill="#9a2430" opacity=".82"/><path d="M218 52 l8 8 l-8 8 l-8 -8Z" fill="#9a2430" opacity=".82"/><path d="M218 348 l8 -8 l-8 -8 l-8 8Z" fill="#9a2430" opacity=".82"/><path d="M242 52 l8 8 l-8 8 l-8 -8Z" fill="#9a2430" opacity=".82"/><path d="M242 348 l8 -8 l-8 -8 l-8 8Z" fill="#9a2430" opacity=".82"/><path d="M96 60 l8 8 l8 -8 l-8 -8Z" fill="#fff8e8" opacity=".65"/><path d="M264 60 l-8 8 l-8 -8 l8 -8Z" fill="#fff8e8" opacity=".65"/><path d="M96 84 l8 8 l8 -8 l-8 -8Z" fill="#fff8e8" opacity=".65"/><path d="M264 84 l-8 8 l-8 -8 l8 -8Z" fill="#fff8e8" opacity=".65"/><path d="M96 108 l8 8 l8 -8 l-8 -8Z" fill="#fff8e8" opacity=".65"/><path d="M264 108 l-8 8 l-8 -8 l8 -8Z" fill="#fff8e8" opacity=".65"/><path d="M96 132 l8 8 l8 -8 l-8 -8Z" fill="#fff8e8" opacity=".65"/><path d="M264 132 l-8 8 l-8 -8 l8 -8Z" fill="#fff8e8" opacity=".65"/><path d="M96 156 l8 8 l8 -8 l-8 -8Z" fill="#fff8e8" opacity=".65"/><path d="M264 156 l-8 8 l-8 -8 l8 -8Z" fill="#fff8e8" opacity=".65"/><path d="M96 180 l8 8 l8 -8 l-8 -8Z" fill="#fff8e8" opacity=".65"/><path d="M264 180 l-8 8 l-8 -8 l8 -8Z" fill="#fff8e8" opacity=".65"/><path d="M96 204 l8 8 l8 -8 l-8 -8Z" fill="#fff8e8" opacity=".65"/><path d="M264 204 l-8 8 l-8 -8 l8 -8Z" fill="#fff8e8" opacity=".65"/><path d="M96 228 l8 8 l8 -8 l-8 -8Z" fill="#fff8e8" opacity=".65"/><path d="M264 228 l-8 8 l-8 -8 l8 -8Z" fill="#fff8e8" opacity=".65"/><path d="M96 252 l8 8 l8 -8 l-8 -8Z" fill="#fff8e8" opacity=".65"/><path d="M264 252 l-8 8 l-8 -8 l8 -8Z" fill="#fff8e8" opacity=".65"/><path d="M96 276 l8 8 l8 -8 l-8 -8Z" fill="#fff8e8" opacity=".65"/><path d="M264 276 l-8 8 l-8 -8 l8 -8Z" fill="#fff8e8" opacity=".65"/><path d="M96 300 l8 8 l8 -8 l-8 -8Z" fill="#fff8e8" opacity=".65"/><path d="M264 300 l-8 8 l-8 -8 l8 -8Z" fill="#fff8e8" opacity=".65"/><path d="M96 324 l8 8 l8 -8 l-8 -8Z" fill="#fff8e8" opacity=".65"/><path d="M264 324 l-8 8 l-8 -8 l8 -8Z" fill="#fff8e8" opacity=".65"/><path d="M96 348 l8 8 l8 -8 l-8 -8Z" fill="#fff8e8" opacity=".65"/><path d="M264 348 l-8 8 l-8 -8 l8 -8Z" fill="#fff8e8" opacity=".65"/>
    
    <g transform="rotate(189 180 200)">
      <path d="M180 164.12 L195.0696 184.9304 L215.88 200 L195.0696 215.0696 L180 235.88 L164.9304 215.0696 L144.12 200 L164.9304 184.9304 Z" fill="#9a2430" opacity=".96"/>
      <ellipse cx="180" cy="200" rx="15.069600000000001" ry="25.116" fill="#fff8e8" opacity=".88"/>
      <circle cx="180" cy="200" r="7.8936" fill="#7b6241" opacity=".9"/>
    </g><path d="M126 69 C139 69 139 82 126 95 C113 82 113 69 126 69Z" fill="#9a2430" opacity=".9"/><path d="M234 69 C247 69 247 82 234 95 C221 82 221 69 234 69Z" fill="#fff8e8" opacity=".9"/><path d="M126 305 C139 305 139 318 126 331 C113 318 113 305 126 305Z" fill="#9a2430" opacity=".9"/><path d="M234 305 C247 305 247 318 234 331 C221 318 221 305 234 305Z" fill="#fff8e8" opacity=".9"/>
    <path d="M92 326 C156.96 342 214.56 316 268 336" fill="none" stroke="#fff" stroke-width="4" opacity=".11"/>
  </g>
</svg>
