<svg xmlns="http://www.w3.org/2000/svg" width="720" height="800" viewBox="0 0 360 400" role="img" aria-label="Emerald Tabriz Rug 4 x 6 ft">
  <defs>
    <filter id="shadow" x="-20%" y="-20%" width="140%" height="140%">
      <feDropShadow dx="0" dy="11" stdDeviation="10" flood-color="#1b140d" flood-opacity=".22"/>
    </filter>
    <linearGradient id="pile" x1="0" x2="1" y1="0" y2="1">
      <stop offset="0" stop-color="#0e5a47"/>
      <stop offset=".55" stop-color="#07352c"/>
      <stop offset="1" stop-color="#0e5a47"/>
    </linearGradient>
    <pattern id="threads" width="8" height="8" patternUnits="userSpaceOnUse">
      <path d="M0 3 H8 M2 0 V8" stroke="#ffffff" stroke-opacity=".08" stroke-width="1"/>
      <path d="M0 7 H8" stroke="#000000" stroke-opacity=".09" stroke-width="1"/>
    </pattern>
  </defs>
  <rect width="360" height="400" fill="#f4f1ec"/>
  <ellipse cx="180" cy="365" rx="117.15" ry="18" fill="#000" opacity=".1"/>
  <g filter="url(#shadow)">
    <path d="M83 24 v16 M83 360 v16" stroke="#d9c8a4" stroke-width="2" opacity=".8"/><path d="M99.08333333333333 24 v16 M99.08333333333333 360 v16" stroke="#d9c8a4" stroke-width="2" opacity=".8"/><path d="M115.16666666666666 24 v16 M115.16666666666666 360 v16" stroke="#d9c8a4" stroke-width="2" opacity=".8"/><path d="M131.25 24 v16 M131.25 360 v16" stroke="#d9c8a4" stroke-width="2" opacity=".8"/><path d="M147.33333333333331 24 v16 M147.33333333333331 360 v16" stroke="#d9c8a4" stroke-width="2" opacity=".8"/><path d="M163.41666666666666 24 v16 M163.41666666666666 360 v16" stroke="#d9c8a4" stroke-width="2" opacity=".8"/><path d="M179.5 24 v16 M179.5 360 v16" stroke="#d9c8a4" stroke-width="2" opacity=".8"/><path d="M195.58333333333331 24 v16 M195.58333333333331 360 v16" stroke="#d9c8a4" stroke-width="2" opacity=".8"/><path d="M211.66666666666666 24 v16 M211.66666666666666 360 v16" stroke="#d9c8a4" stroke-width="2" opacity=".8"/><path d="M227.75 24 v16 M227.75 360 v16" stroke="#d9c8a4" stroke-width="2" opacity=".8"/><path d="M243.83333333333331 24 v16 M243.83333333333331 360 v16" stroke="#d9c8a4" stroke-width="2" opacity=".8"/><path d="M259.91666666666663 24 v16 M259.91666666666663 360 v16" stroke="#d9c8a4" stroke-width="2" opacity=".8"/><path d="M276 24 v16 M276 360 v16" stroke="#d9c8a4" stroke-width="2" opacity=".8"/>
    <rect x="73" y="40" width="213" height="320" rx="8" fill="url(#pile)"/>
    <rect x="73" y="40" width="213" height="320" rx="8" fill="url(#threads)"/>
    <rect x="81" y="48" width="197" height="304" rx="6" fill="none" stroke="#c9a350" stroke-width="5"/>
    <rect x="91" y="58" width="177" height="284" rx="4" fill="none" stroke="#eff0d4" stroke-width="2" opacity=".8"/>
    <path d="M87 52 l8 8 l-8 8 l-8 -8Z" fill="#c9a350" opacity=".82"/><path d="M87 348 l8 -8 l-8 -8 l-8 8Z" fill="#c9a350" opacity=".82"/><path d="M111 52 l8 8 l-8 8 l-8 -8Z" fill="#c9a350" opacity=".82"/><path d="M111 348 l8 -8 l-8 -8 l-8 8Z" fill="#c9a350" opacity=".82"/><path d="M135 52 l8 8 l-8 8 l-8 -8Z" fill="#c9a350" opacity=".82"/><path d="M135 348 l8 -8 l-8 -8 l-8 8Z" fill="#c9a350" opacity=".82"/><path d="M159 52 l8 8 l-8 8 l-8 -8Z" fill="#c9a350" opacity=".82"/><path d="M159 348 l8 -8 l-8 -8 l-8 8Z" fill="#c9a350" opacity=".82"/><path d="M183 52 l8 8 l-8 8 l-8 -8Z" fill="#c9a350" opacity=".82"/><path d="M183 348 l8 -8 l-8 -8 l-8 8Z" fill="#c9a350" opacity=".82"/><path d="M207 52 l8 8 l-8 8 l-8 -8Z" fill="#c9a350" opacity=".82"/><path d="M207 348 l8 -8 l-8 -8 l-8 8Z" fill="#c9a350" opacity=".82"/><path d="M231 52 l8 8 l-8 8 l-8 -8Z" fill="#c9a350" opacity=".82"/><path d="M231 348 l8 -8 l-8 -8 l-8 8Z" fill="#c9a350" opacity=".82"/><path d="M255 52 l8 8 l-8 8 l-8 -8Z" fill="#c9a350" opacity=".82"/><path d="M255 348 l8 -8 l-8 -8 l-8 8Z" fill="#c9a350" opacity=".82"/><path d="M85 60 l8 8 l8 -8 l-8 -8Z" fill="#eff0d4" opacity=".65"/><path d="M274 60 l-8 8 l-8 -8 l8 -8Z" fill="#eff0d4" opacity=".65"/><path d="M85 84 l8 8 l8 -8 l-8 -8Z" fill="#eff0d4" opacity=".65"/><path d="M274 84 l-8 8 l-8 -8 l8 -8Z" fill="#eff0d4" opacity=".65"/><path d="M85 108 l8 8 l8 -8 l-8 -8Z" fill="#eff0d4" opacity=".65"/><path d="M274 108 l-8 8 l-8 -8 l8 -8Z" fill="#eff0d4" opacity=".65"/><path d="M85 132 l8 8 l8 -8 l-8 -8Z" fill="#eff0d4" opacity=".65"/><path d="M274 132 l-8 8 l-8 -8 l8 -8Z" fill="#eff0d4" opacity=".65"/><path d="M85 156 l8 8 l8 -8 l-8 -8Z" fill="#eff0d4" opacity=".65"/><path d="M274 156 l-8 8 l-8 -8 l8 -8Z" fill="#eff0d4" opacity=".65"/><path d="M85 180 l8 8 l8 -8 l-8 -8Z" fill="#eff0d4" opacity=".65"/><path d="M274 180 l-8 8 l-8 -8 l8 -8Z" fill="#eff0d4" opacity=".65"/><path d="M85 204 l8 8 l8 -8 l-8 -8Z" fill="#eff0d4" opacity=".65"/><path d="M274 204 l-8 8 l-8 -8 l8 -8Z" fill="#eff0d4" opacity=".65"/><path d="M85 228 l8 8 l8 -8 l-8 -8Z" fill="#eff0d4" opacity=".65"/><path d="M274 228 l-8 8 l-8 -8 l8 -8Z" fill="#eff0d4" opacity=".65"/><path d="M85 252 l8 8 l8 -8 l-8 -8Z" fill="#eff0d4" opacity=".65"/><path d="M274 252 l-8 8 l-8 -8 l8 -8Z" fill="#eff0d4" opacity=".65"/><path d="M85 276 l8 8 l8 -8 l-8 -8Z" fill="#eff0d4" opacity=".65"/><path d="M274 276 l-8 8 l-8 -8 l8 -8Z" fill="#eff0d4" opacity=".65"/><path d="M85 300 l8 8 l8 -8 l-8 -8Z" fill="#eff0d4" opacity=".65"/><path d="M274 300 l-8 8 l-8 -8 l8 -8Z" fill="#eff0d4" opacity=".65"/><path d="M85 324 l8 8 l8 -8 l-8 -8Z" fill="#eff0d4" opacity=".65"/><path d="M274 324 l-8 8 l-8 -8 l8 -8Z" fill="#eff0d4" opacity=".65"/><path d="M85 348 l8 8 l8 -8 l-8 -8Z" fill="#eff0d4" opacity=".65"/><path d="M274 348 l-8 8 l-8 -8 l8 -8Z" fill="#eff0d4" opacity=".65"/>
    <ellipse cx="125" cy="100" rx="12" ry="20" fill="#c9a350" opacity=".62"/><ellipse cx="234" cy="100" rx="15" ry="20" fill="#eff0d4" opacity=".62"/><ellipse cx="125" cy="200" rx="15" ry="20" fill="#eff0d4" opacity=".62"/><ellipse cx="234" cy="200" rx="18" ry="20" fill="#c9a350" opacity=".62"/><ellipse cx="125" cy="300" rx="18" ry="20" fill="#c9a350" opacity=".62"/><ellipse cx="234" cy="300" rx="12" ry="20" fill="#eff0d4" opacity=".62"/>
    <g transform="rotate(96 179.5 200)">
      <path d="M179.5 166.37 L193.6246 185.8754 L213.13 200 L193.6246 214.1246 L179.5 233.63 L165.3754 214.1246 L145.87 200 L165.3754 185.8754 Z" fill="#c9a350" opacity=".96"/>
      <ellipse cx="179.5" cy="200" rx="14.124600000000001" ry="23.541" fill="#eff0d4" opacity=".88"/>
      <circle cx="179.5" cy="200" r="7.398600000000001" fill="#07352c" opacity=".9"/>
    </g>
    <path d="M81 326 C153.94 342 217.84 316 278 336" fill="none" stroke="#fff" stroke-width="4" opacity=".11"/>
  </g>
</svg>
