<svg xmlns="http://www.w3.org/2000/svg" width="720" height="800" viewBox="0 0 360 400" role="img" aria-label="Navy Isfahan Rug 7 x 10 ft">
  <defs>
    <filter id="shadow" x="-20%" y="-20%" width="140%" height="140%">
      <feDropShadow dx="0" dy="11" stdDeviation="10" flood-color="#1b140d" flood-opacity=".22"/>
    </filter>
    <linearGradient id="pile" x1="0" x2="1" y1="0" y2="1">
      <stop offset="0" stop-color="#18304f"/>
      <stop offset=".55" stop-color="#0c172b"/>
      <stop offset="1" stop-color="#18304f"/>
    </linearGradient>
    <pattern id="threads" width="8" height="8" patternUnits="userSpaceOnUse">
      <path d="M0 3 H8 M2 0 V8" stroke="#ffffff" stroke-opacity=".08" stroke-width="1"/>
      <path d="M0 7 H8" stroke="#000000" stroke-opacity=".09" stroke-width="1"/>
    </pattern>
  </defs>
  <rect width="360" height="400" fill="#f4f1ec"/>
  <ellipse cx="180" cy="365" rx="123.20000000000002" ry="18" fill="#000" opacity=".1"/>
  <g filter="url(#shadow)">
    <path d="M78 24 v16 M78 360 v16" stroke="#d9c8a4" stroke-width="2" opacity=".8"/><path d="M93.6923076923077 24 v16 M93.6923076923077 360 v16" stroke="#d9c8a4" stroke-width="2" opacity=".8"/><path d="M109.38461538461539 24 v16 M109.38461538461539 360 v16" stroke="#d9c8a4" stroke-width="2" opacity=".8"/><path d="M125.07692307692307 24 v16 M125.07692307692307 360 v16" stroke="#d9c8a4" stroke-width="2" opacity=".8"/><path d="M140.76923076923077 24 v16 M140.76923076923077 360 v16" stroke="#d9c8a4" stroke-width="2" opacity=".8"/><path d="M156.46153846153845 24 v16 M156.46153846153845 360 v16" stroke="#d9c8a4" stroke-width="2" opacity=".8"/><path d="M172.15384615384613 24 v16 M172.15384615384613 360 v16" stroke="#d9c8a4" stroke-width="2" opacity=".8"/><path d="M187.84615384615384 24 v16 M187.84615384615384 360 v16" stroke="#d9c8a4" stroke-width="2" opacity=".8"/><path d="M203.53846153846155 24 v16 M203.53846153846155 360 v16" stroke="#d9c8a4" stroke-width="2" opacity=".8"/><path d="M219.23076923076923 24 v16 M219.23076923076923 360 v16" stroke="#d9c8a4" stroke-width="2" opacity=".8"/><path d="M234.9230769230769 24 v16 M234.9230769230769 360 v16" stroke="#d9c8a4" stroke-width="2" opacity=".8"/><path d="M250.6153846153846 24 v16 M250.6153846153846 360 v16" stroke="#d9c8a4" stroke-width="2" opacity=".8"/><path d="M266.30769230769226 24 v16 M266.30769230769226 360 v16" stroke="#d9c8a4" stroke-width="2" opacity=".8"/><path d="M282 24 v16 M282 360 v16" stroke="#d9c8a4" stroke-width="2" opacity=".8"/>
    <rect x="68" y="40" width="224" height="320" rx="8" fill="url(#pile)"/>
    <rect x="68" y="40" width="224" height="320" rx="8" fill="url(#threads)"/>
    <rect x="76" y="48" width="208" height="304" rx="6" fill="none" stroke="#c09a4a" stroke-width="6"/>
    <rect x="86" y="58" width="188" height="284" rx="4" fill="none" stroke="#e1e8ee" stroke-width="2" opacity=".8"/>
    <path d="M82 52 l8 8 l-8 8 l-8 -8Z" fill="#c09a4a" opacity=".82"/><path d="M82 348 l8 -8 l-8 -8 l-8 8Z" fill="#c09a4a" opacity=".82"/><path d="M110 52 l8 8 l-8 8 l-8 -8Z" fill="#c09a4a" opacity=".82"/><path d="M110 348 l8 -8 l-8 -8 l-8 8Z" fill="#c09a4a" opacity=".82"/><path d="M138 52 l8 8 l-8 8 l-8 -8Z" fill="#c09a4a" opacity=".82"/><path d="M138 348 l8 -8 l-8 -8 l-8 8Z" fill="#c09a4a" opacity=".82"/><path d="M166 52 l8 8 l-8 8 l-8 -8Z" fill="#c09a4a" opacity=".82"/><path d="M166 348 l8 -8 l-8 -8 l-8 8Z" fill="#c09a4a" opacity=".82"/><path d="M194 52 l8 8 l-8 8 l-8 -8Z" fill="#c09a4a" opacity=".82"/><path d="M194 348 l8 -8 l-8 -8 l-8 8Z" fill="#c09a4a" opacity=".82"/><path d="M222 52 l8 8 l-8 8 l-8 -8Z" fill="#c09a4a" opacity=".82"/><path d="M222 348 l8 -8 l-8 -8 l-8 8Z" fill="#c09a4a" opacity=".82"/><path d="M250 52 l8 8 l-8 8 l-8 -8Z" fill="#c09a4a" opacity=".82"/><path d="M250 348 l8 -8 l-8 -8 l-8 8Z" fill="#c09a4a" opacity=".82"/><path d="M278 52 l8 8 l-8 8 l-8 -8Z" fill="#c09a4a" opacity=".82"/><path d="M278 348 l8 -8 l-8 -8 l-8 8Z" fill="#c09a4a" opacity=".82"/><path d="M80 60 l8 8 l8 -8 l-8 -8Z" fill="#e1e8ee" opacity=".65"/><path d="M280 60 l-8 8 l-8 -8 l8 -8Z" fill="#e1e8ee" opacity=".65"/><path d="M80 88 l8 8 l8 -8 l-8 -8Z" fill="#e1e8ee" opacity=".65"/><path d="M280 88 l-8 8 l-8 -8 l8 -8Z" fill="#e1e8ee" opacity=".65"/><path d="M80 116 l8 8 l8 -8 l-8 -8Z" fill="#e1e8ee" opacity=".65"/><path d="M280 116 l-8 8 l-8 -8 l8 -8Z" fill="#e1e8ee" opacity=".65"/><path d="M80 144 l8 8 l8 -8 l-8 -8Z" fill="#e1e8ee" opacity=".65"/><path d="M280 144 l-8 8 l-8 -8 l8 -8Z" fill="#e1e8ee" opacity=".65"/><path d="M80 172 l8 8 l8 -8 l-8 -8Z" fill="#e1e8ee" opacity=".65"/><path d="M280 172 l-8 8 l-8 -8 l8 -8Z" fill="#e1e8ee" opacity=".65"/><path d="M80 200 l8 8 l8 -8 l-8 -8Z" fill="#e1e8ee" opacity=".65"/><path d="M280 200 l-8 8 l-8 -8 l8 -8Z" fill="#e1e8ee" opacity=".65"/><path d="M80 228 l8 8 l8 -8 l-8 -8Z" fill="#e1e8ee" opacity=".65"/><path d="M280 228 l-8 8 l-8 -8 l8 -8Z" fill="#e1e8ee" opacity=".65"/><path d="M80 256 l8 8 l8 -8 l-8 -8Z" fill="#e1e8ee" opacity=".65"/><path d="M280 256 l-8 8 l-8 -8 l8 -8Z" fill="#e1e8ee" opacity=".65"/><path d="M80 284 l8 8 l8 -8 l-8 -8Z" fill="#e1e8ee" opacity=".65"/><path d="M280 284 l-8 8 l-8 -8 l8 -8Z" fill="#e1e8ee" opacity=".65"/><path d="M80 312 l8 8 l8 -8 l-8 -8Z" fill="#e1e8ee" opacity=".65"/><path d="M280 312 l-8 8 l-8 -8 l8 -8Z" fill="#e1e8ee" opacity=".65"/><path d="M80 340 l8 8 l8 -8 l-8 -8Z" fill="#e1e8ee" opacity=".65"/><path d="M280 340 l-8 8 l-8 -8 l8 -8Z" fill="#e1e8ee" opacity=".65"/>
    <ellipse cx="120" cy="100" rx="15" ry="20" fill="#c09a4a" opacity=".62"/><ellipse cx="180" cy="100" rx="18" ry="20" fill="#e1e8ee" opacity=".62"/><ellipse cx="240" cy="100" rx="12" ry="20" fill="#c09a4a" opacity=".62"/><ellipse cx="120" cy="200" rx="18" ry="20" fill="#e1e8ee" opacity=".62"/><ellipse cx="180" cy="200" rx="12" ry="20" fill="#c09a4a" opacity=".62"/><ellipse cx="240" cy="200" rx="15" ry="20" fill="#e1e8ee" opacity=".62"/><ellipse cx="120" cy="300" rx="12" ry="20" fill="#c09a4a" opacity=".62"/><ellipse cx="180" cy="300" rx="15" ry="20" fill="#e1e8ee" opacity=".62"/><ellipse cx="240" cy="300" rx="18" ry="20" fill="#c09a4a" opacity=".62"/>
    <g transform="rotate(32 180 200)">
      <path d="M180 164.28 L195.0024 184.9976 L215.72 200 L195.0024 215.0024 L180 235.72 L164.9976 215.0024 L144.28 200 L164.9976 184.9976 Z" fill="#c09a4a" opacity=".96"/>
      <ellipse cx="180" cy="200" rx="15.0024" ry="25.003999999999998" fill="#e1e8ee" opacity=".88"/>
      <circle cx="180" cy="200" r="7.8584" fill="#0c172b" opacity=".9"/>
    </g>
    <path d="M76 326 C153.12 342 220.32000000000002 316 284 336" fill="none" stroke="#fff" stroke-width="4" opacity=".11"/>
  </g>
</svg>
